Genre:Action | Crime | Drama
Language:English
IMDb:http://www.imdb.com/title/tt1390397/
Encoder: Tony2
...........................................
General
Complete name : Baseline 2010 DVDRIP XviD FEEL-FREE
Format : AVI
Format/Info : Audio Video Interleave
File size : 916 MiB
Duration : 1h 35mn
Overall bit rate : 1 340 Kbps
...........................................
Video
Format : xvid
Codec ID : xvid
Duration : 1h 35mn
Bit rate : 1 200 Kbps
Width : 720 pixels
Height : 304 pixels
Display aspect ratio : 2.35:1
Frame rate : 24.000 fps
Resolution : 24 bits
Bits/(Pixel*Frame) : 0.228
Stream size : 820 MiB (90%)
............................................
Audio
ID : 1
Format : MPEG Audio
Format version : Version 1
Format profile : Layer 3
Format settings, Mode : Joint stereo / MS Stereo
Codec ID : 55
Codec ID/Hint : MP3
Duration : 1h 35mn
Bit rate mode : Constant
Bit rate : 128 Kbps
Channel(s) : 2 channels
Sampling rate : 48.0 KHz
Resolution : 16 bits
Stream size : 87.5 MiB (10%)
Alignment : Aligned on interleaves
Interleave, duration : 24 ms (0.58 video frame)
Interleave, preload duration : 24 ms
Writing library : LAME3.97
.............................................
Plot:
The Baseline is the centre of the East London grime club scene and the queue regularly stretches around the block
...................................................